<svg width="539" height="60" viewBox="0 0 539 60" fill="none" xmlns="http://www.w3.org/2000/svg">
<path d="M510.513 34.4471C510.826 30.3848 514.132 26.0085 519.872 26.0085C526.165 26.0085 529.155 29.9932 529.311 34.4478H510.514L510.513 34.4471ZM538.515 38.1991C538.515 26.1637 531.594 18.4278 519.794 18.4278C510.121 18.4278 501.153 26.3986 501.153 38.4318C501.153 51.325 510.355 58.8282 520.738 58.8282C529.94 58.8282 535.996 53.4359 538.042 46.7928L530.334 44.3708C529.076 48.122 526.242 51.0139 520.738 51.0139C515.076 51.0139 510.513 46.8726 510.277 41.0887H538.276C538.355 40.9321 538.515 39.6834 538.515 38.1991V38.1991ZM483.837 34.5804L478.047 33.4025C475.701 32.9288 474.214 31.4354 474.214 29.3892C474.214 27.0305 476.483 24.9843 479.69 24.9843C484.778 24.9843 486.419 28.5239 486.734 30.7275L494.402 28.5239C493.774 24.7501 490.331 17.826 479.69 17.826C471.789 17.826 465.685 23.4901 465.685 30.1755C465.685 35.4457 469.206 39.8506 475.934 41.3448L481.569 42.604C484.622 43.2328 486.029 44.8061 486.029 46.8515C486.029 49.211 484.073 51.2572 480.316 51.2572C475.466 51.2572 472.882 48.1875 472.569 44.7293L464.668 46.9306C465.136 51.2564 469.363 58.4938 480.395 58.4938C490.098 58.4938 494.792 52.0427 494.792 46.2227C494.792 40.5586 491.037 36.1536 483.837 34.5804ZM448.745 41.7628C448.745 47.3802 445.646 50.3407 440.536 50.3407C435.552 50.3407 432.391 47.3802 432.391 41.7628V19.3322H424V42.366C424 52.8764 431.358 58.4938 440.536 58.4938C449.78 58.4938 457.136 52.8764 457.136 42.366V19.3322H448.745V41.7628ZM396.473 50.312C390.86 50.312 385.723 46.0645 385.723 38.1192C385.723 30.1762 390.86 26.0846 396.473 26.0846C402.163 26.0846 407.22 30.1762 407.22 38.1192C407.22 46.1436 402.163 50.312 396.473 50.312ZM396.473 17.826C385.011 17.826 376.554 26.4001 376.554 38.1192C376.554 49.9204 385.01 58.4938 396.473 58.4938C408.013 58.4938 416.469 49.9197 416.469 38.1192C416.469 26.4001 408.013 17.826 396.473 17.826V17.826ZM358.745 25.7939H332.53V2.7639H323.083V58.4938H332.53V34.6753H358.745V58.4938H368.27V2.7639H358.745V25.7939ZM283.445 45.6044V27.8416H291.376V19.7465H283.446V8.03565H275.204V13.7728C275.204 17.152 273.4 19.7457 269.317 19.7457H267.354V27.8416H274.417V47.097C274.417 54.25 278.815 58.4938 285.879 58.4938C289.178 58.4938 290.902 57.8657 291.453 57.6292V50.0846C291.06 50.1629 289.569 50.3994 288.314 50.3994C284.936 50.3994 283.445 48.9836 283.445 45.6044V45.6044ZM251.127 34.5804L245.337 33.4025C242.991 32.9288 241.504 31.4354 241.504 29.3892C241.504 27.0305 243.773 24.9843 246.981 24.9843C252.069 24.9843 253.71 28.5239 254.024 30.7275L261.692 28.5239C261.064 24.7501 257.621 17.826 246.981 17.826C239.079 17.826 232.975 23.4901 232.975 30.1755C232.975 35.4457 236.497 39.8506 243.224 41.3448L248.859 42.604C251.912 43.2328 253.319 44.8061 253.319 46.8515C253.319 49.211 251.363 51.2572 247.608 51.2572C242.755 51.2572 240.175 48.1875 239.859 44.7293L231.958 46.9306C232.426 51.2564 236.653 58.4938 247.685 58.4938C257.388 58.4938 262.082 52.0427 262.082 46.2227C262.082 40.5586 258.327 36.1536 251.127 34.5804ZM196.958 33.9523C197.276 29.8629 200.604 25.4573 206.393 25.4573C212.734 25.4573 215.746 29.4683 215.905 33.9523H196.957H196.958ZM206.314 17.826C196.562 17.826 187.524 25.8496 187.524 37.9626C187.524 50.9409 196.8 58.4938 207.265 58.4938C216.537 58.4938 222.641 53.0661 224.703 46.3786L216.936 43.9408C215.667 47.7168 212.813 50.6283 207.265 50.6283C201.556 50.6283 196.958 46.4591 196.721 40.6376H224.941C225.021 40.4795 225.18 39.2218 225.18 37.7284C225.18 25.6132 218.204 17.826 206.314 17.826ZM172.355 41.7628C172.355 47.3802 169.254 50.3407 164.146 50.3407C159.161 50.3407 156.001 47.3802 156.001 41.7628V19.3322H147.61V42.366C147.61 52.8764 154.966 58.4938 164.146 58.4938C173.39 58.4938 180.746 52.8764 180.746 42.366V19.3322H172.355V41.7628ZM114.051 10.7212C122.976 10.7212 128.504 16.057 130.4 22.3356L139.325 18.9595C136.325 9.77909 127.636 2.01079 114.051 2.01079C99.5208 2.01079 85.8549 12.6831 85.8549 30.9677C85.8549 49.3285 98.8076 60 113.419 60C113.473 60 113.522 59.9962 113.575 59.9962L113.569 60C143.384 60 139.081 30.6522 139.081 30.6522H111.525V38.8912H130.005C129.532 43.6787 125.268 51.3686 113.974 51.3686C104.338 51.3686 95.4917 44.5417 95.4917 30.967C95.4917 17.155 104.969 10.7212 114.053 10.7212H114.051ZM40.6203 0.000753097C34.5382 0.000753097 29.6054 4.94339 29.6054 11.0368C29.6054 17.1324 34.5382 22.0728 40.6211 22.0728C46.7024 22.0728 51.6345 17.1324 51.6345 11.0368C51.6337 4.94339 46.7016 0.000753097 40.6203 0.000753097ZM0.000753097 17.4103V41.329C0.000753097 50.7466 9.66989 58.4772 21.6089 58.7378V0C9.66989 0.260575 0 7.99046 0 17.4103H0.000753097ZM29.9669 58.737C41.9081 58.4772 51.5735 50.7481 51.5735 41.3275V30.7516H29.9669V58.737Z" fill="white"/>
</svg>
