<?xml version="1.0" encoding="utf-8"?>
<!-- Generator: Adobe Illustrator 24.0.3, SVG Export Plug-In . SVG Version: 6.00 Build 0)  -->
<svg version="1.1" id="Layer_1" xmlns="http://www.w3.org/2000/svg" xmlns:xlink="http://www.w3.org/1999/xlink" x="0px" y="0px"
	 viewBox="0 0 1166.81 233.62" style="enable-background:new 0 0 1166.81 233.62;" xml:space="preserve">
<style type="text/css">
	.st0{fill:#FFFFFF;}
</style>
<g>
	<path class="st0" d="M578.91,217.28c-187.61,0-375.21,0-562.82,0c-1.37,0-2.76-0.13-4.12,0.02c-3.69,0.43-4.68-1.27-4.67-4.75
		c0.11-21.92,0.06-43.85,0.06-65.77c0-42.97,0-85.95,0-128.92c0-7.79,0-7.79,7.66-7.79c230.57,0,461.15,0,691.72,0
		c145.51,0,291.03,0,436.54,0c7.23,0,7.24,0,7.24,7.1c0,64.4,0,128.8,0,193.19c0,1.25-0.04,2.49-0.02,3.74
		c0.03,2.14-0.91,3.25-3.15,3.17c-1.5-0.05-3,0.01-4.5,0.01C954.87,217.28,766.89,217.28,578.91,217.28z M579.07,25.19
		c-183.62,0-367.24,0-550.87,0c-5.62,0-5.63,0.01-5.63,5.44c0,55.43,0,110.87,0,166.3c0,5.12,0.02,5.14,5.21,5.14
		c34.1,0,68.2,0,102.3,0c333.02,0,666.03,0,999.05,0c6.18,0,6.19,0,6.19-6.04c0-55.18,0-110.37,0-165.55c0-5.28-0.01-5.28-5.4-5.29
		c-1.12,0-2.25,0-3.37,0C944.07,25.19,761.57,25.19,579.07,25.19z"/>
	<path class="st0" d="M103.25,114.36c1.62,0.48,2.21,0.7,2.82,0.83c9.47,1.97,14.44,8.02,15.28,17.38
		c1.08,12.02,1.82,24.07,2.75,36.1c0.13,1.67-0.61,2.29-2.13,2.29c-6.37,0-12.73-0.01-19.1,0c-1.68,0-2.37-1.07-2.9-2.44
		c-1.32-3.42-1.77-7-1.8-10.62c-0.06-6.22,0.04-12.45-0.04-18.68c-0.15-12.07-8.51-18.33-20.38-15.39c-2.3,0.57-1.98,2.27-1.99,3.82
		c-0.03,12.08-0.02,24.15-0.02,36.23c0,7.11,0,7.11-7.06,7.11c-4,0-7.99,0.01-11.99,0c-5.27-0.01-5.29-0.02-5.29-5.45
		c0-33.62,0-67.23,0-100.85c0-1.87,0.03-3.74,0.02-5.6c-0.01-1.76,0.65-2.86,2.6-2.85c14.6,0.09,29.26-0.93,43.79,0.42
		c14.95,1.39,21.89,9.02,23.98,24.05c0.71,5.12,0.47,10.19-0.55,15.22C119.32,105.52,113.49,111.56,103.25,114.36z M75.74,89.8
		c0,2.37,0,4.73,0,7.1c0,9.51,0.3,9.76,9.92,8.45c8.03-1.1,10.57-3.54,11.86-11.52c0.22-1.35,0.36-2.72,0.38-4.08
		c0.18-11.25-3.56-15.11-14.85-15.37c-1.25-0.03-2.5,0.05-3.75-0.02c-2.52-0.15-3.66,0.89-3.59,3.49
		C75.83,81.83,75.75,85.81,75.74,89.8z"/>
	<path class="st0" d="M614.25,114.54c13.36,1.94,17.44,10.83,18.04,22.63c0.54,10.43,1.4,20.85,2.2,31.27
		c0.14,1.83-0.52,2.53-2.25,2.53c-6.24-0.01-12.48-0.02-18.73,0.01c-1.85,0.01-2.62-1.07-3.19-2.59c-1.28-3.43-1.72-7.01-1.75-10.63
		c-0.05-6.35,0.07-12.7-0.05-19.05c-0.21-11.56-9.27-18.05-20.51-14.85c-2.27,0.65-1.84,2.4-1.85,3.92
		c-0.04,12.45-0.02,24.9-0.03,37.35c0,5.84-0.01,5.85-5.7,5.85c-4.87,0-9.74-0.14-14.61,0.05c-3.14,0.12-4.09-1.12-4.07-4.14
		c0.1-15.44,0.04-30.88,0.04-46.32c0-19.92,0.07-39.84-0.07-59.76c-0.03-3.59,1.11-4.74,4.7-4.68c12.48,0.18,24.97-0.05,37.45,0.12
		c8.47,0.11,16.49,1.99,22.24,8.82c8.03,9.54,8.76,30,1.66,40.26C624.57,110.03,619.8,112.58,614.25,114.54z M586.18,89.92
		c0,4.22-0.01,8.44,0,12.66c0,1.46,0.26,2.57,2.09,2.94c12.64,2.54,20.17-3.6,20.07-16.44c0-0.25,0-0.5-0.01-0.74
		c-0.33-10.02-3.85-13.54-13.94-13.92c-1.49-0.06-2.99,0.04-4.48-0.06c-2.68-0.18-3.88,0.89-3.78,3.66
		C586.27,81.97,586.17,85.95,586.18,89.92z"/>
	<path class="st0" d="M986.38,114.36c1.16,0.38,1.72,0.58,2.29,0.74c10.93,3.22,14.84,7.76,15.8,18.99
		c0.97,11.4,1.63,22.83,2.53,34.24c0.17,2.1-0.7,2.65-2.52,2.64c-6.12-0.02-12.24-0.04-18.35,0c-1.81,0.01-2.67-0.96-3.25-2.51
		c-1.29-3.43-1.75-7-1.78-10.62c-0.06-6.22,0.04-12.45-0.04-18.68c-0.15-12.01-8.69-18.36-20.42-15.34
		c-2.3,0.59-1.94,2.31-1.94,3.85c-0.03,12.2-0.02,24.4-0.02,36.61c0,1.12-0.06,2.24-0.01,3.36c0.13,2.66-1.28,3.4-3.72,3.36
		c-5.62-0.09-11.24-0.15-16.85,0.02c-3.06,0.09-3.81-1.29-3.78-4.04c0.1-9.46,0.03-18.92,0.03-28.39c0-25.65,0-51.3,0-76.95
		c0-5.44,0.02-5.45,5.29-5.45c12.24-0.01,24.47-0.14,36.71,0.05c9.01,0.14,17.42,2.21,23.22,9.91c7.2,9.56,7.58,29.25,0.84,39.09
		C997.14,109.99,992.37,112.59,986.38,114.36z M958.68,89.98c0,0-0.01,0-0.01,0c0,2.61-0.04,5.21,0.01,7.82
		c0.15,8.46-1.46,7.86,8.14,7.65c3.99-0.09,8.44-0.51,10.8-4.08c4.33-6.57,4.35-13.98,1.51-21.06c-2.36-5.88-8.17-5.68-13.42-5.94
		c-1.24-0.06-2.49,0.04-3.73-0.02c-2.38-0.11-3.37,0.98-3.32,3.34C958.74,81.79,958.68,85.89,958.68,89.98z"/>
	<path class="st0" d="M390.46,116.25c0,15.8-0.01,31.6,0,47.4c0.01,8.48,0.07,7.25-7.22,7.33c-4.24,0.04-8.51-0.23-12.73,0.08
		c-3.94,0.28-4.95-1.38-4.84-4.99c0.2-6.47,0.06-12.95,0.06-19.42c0-28.26,0-56.53,0-84.79c0-5.65,0.02-5.65,5.53-5.66
		c4.74-0.01,9.49-0.01,14.23,0c4.86,0.02,4.95,0.09,4.96,5.1c0.02,12.2,0,24.4,0.02,36.61c0,1.2-0.31,2.47,0.4,3.66
		c1.3-0.09,1.41-1.28,1.86-2.06c7.82-13.33,15.65-26.64,23.34-40.04c1.34-2.33,2.85-3.4,5.61-3.32c6.24,0.18,12.48,0.03,18.73,0.06
		c3.94,0.02,4.13,0.32,2.08,3.63c-8.85,14.3-17.64,28.65-26.7,42.82c-2.27,3.54-2.54,6.31-0.54,10.16
		c9.31,17.9,18.28,35.98,27.35,54.01c1.99,3.96,1.88,4.14-2.42,4.16c-6.12,0.03-12.25-0.22-18.35,0.09c-3.5,0.18-5.1-1.28-6.47-4.23
		c-7.4-15.92-14.97-31.77-22.49-47.64c-0.52-1.09-1.11-2.14-1.67-3.21C390.96,116.09,390.71,116.17,390.46,116.25z"/>
	<path class="st0" d="M1059.03,116.21c0,14.8,0,29.61,0,44.41c0,10.37,0,10.37-10.55,10.37c-3.37,0-6.75-0.16-10.11,0.04
		c-3.17,0.19-4.19-1.18-4.11-4.17c0.13-4.85,0.03-9.71,0.03-14.57c0-30.13,0-60.27,0-90.4c0-5.7,0.02-5.7,5.86-5.7
		c4.87,0,9.75,0.16,14.61-0.06c3.34-0.15,4.34,1.2,4.31,4.36c-0.11,12.58-0.05,25.15-0.03,37.73c0,1.09,0.11,2.18,0.17,3.36
		c1.63-0.18,1.75-1.51,2.26-2.38c7.76-13.21,15.54-26.42,23.14-39.72c1.44-2.53,3.13-3.44,5.97-3.36
		c5.99,0.18,11.98,0.03,17.98,0.07c1.2,0.01,2.78-0.54,3.51,0.6c0.79,1.23-0.56,2.29-1.18,3.3c-8.72,14.09-17.35,28.24-26.3,42.18
		c-2.41,3.76-2.81,6.67-0.64,10.82c9.25,17.65,18.08,35.53,27.04,53.33c2.26,4.49,2.22,4.54-2.94,4.54
		c-5.87,0.01-11.75-0.22-17.6,0.08c-3.46,0.18-5.11-1.2-6.5-4.18c-7.4-15.93-14.97-31.77-22.49-47.64c-0.52-1.1-1.11-2.16-1.67-3.24
		C1059.54,116.08,1059.28,116.14,1059.03,116.21z"/>
	<path class="st0" d="M862.54,56.2c3.99,0,8,0.18,11.98-0.06c3.1-0.19,4.35,1.05,5.12,3.97c6.54,24.54,13.23,49.03,19.87,73.54
		c2.96,10.93,5.92,21.87,8.87,32.8c1.15,4.25,0.98,4.5-3.35,4.53c-5.74,0.03-11.49-0.14-17.22,0.07c-2.98,0.1-4.21-1.11-4.82-3.86
		c-1.34-5.95-3.03-11.82-4.36-17.77c-0.61-2.74-1.79-3.96-4.79-3.9c-8.23,0.18-16.48,0.15-24.71,0.01
		c-2.77-0.05-4.01,0.95-4.62,3.62c-1.41,6.19-3.18,12.29-4.61,18.48c-0.58,2.52-1.79,3.49-4.39,3.41
		c-4.99-0.15-9.98-0.04-14.98-0.04c-5.57-0.01-5.66-0.11-4.21-5.36c4.51-16.32,9.05-32.63,13.57-48.94
		c5.15-18.59,10.4-37.16,15.35-55.81c0.99-3.74,2.65-5.09,6.44-4.75C855.28,56.45,858.92,56.2,862.54,56.2z M861.57,81.56
		c-0.33-0.04-0.66-0.09-0.99-0.13c-3.32,14.87-6.66,29.74-9.96,44.61c-0.43,1.96,1.07,1.9,2.34,1.9c5.48,0.01,10.97-0.02,16.45,0.02
		c2.07,0.02,3.06-0.68,2.52-2.91C868.47,110.56,865.02,96.06,861.57,81.56z"/>
	<path class="st0" d="M153.34,99.9c0-13.07,0.08-26.15-0.06-39.22c-0.04-3.33,0.93-4.71,4.45-4.55c5.23,0.24,10.49,0.2,15.73,0.01
		c3.1-0.11,4.2,1.06,4.17,4.11c-0.1,11.7-0.04,23.41-0.03,35.11c0,12.95,0.01,25.9,0,38.84c-0.01,4.26,0.31,8.46,1.72,12.52
		c1.87,5.38,5.6,8.49,11.33,8.82c6.05,0.34,11.12-1.5,13.96-7.33c2.18-4.47,2.75-9.28,2.75-14.17c0.02-24.15,0.01-48.3,0.01-72.46
		c0-5.37,0.02-5.38,5.33-5.39c4.99-0.01,9.99,0.07,14.98-0.02c2.35-0.04,3.37,0.84,3.37,3.27c-0.08,26.27,0.02,52.54-0.22,78.8
		c-0.06,6.74-1.63,13.33-5.07,19.32c-4.15,7.24-10.49,11.56-18.43,13.61c-9.2,2.38-18.52,2.67-27.83,0.79
		c-15.98-3.24-25.5-15.03-26.01-32.86c-0.37-13.06-0.07-26.14-0.07-39.21C153.39,99.9,153.36,99.9,153.34,99.9z"/>
	<path class="st0" d="M720.25,113.54c0-17.43-0.01-34.86,0.01-52.29c0-4.95,0.11-5.04,5.01-5.04c12.48-0.01,24.97-0.02,37.45,0.01
		c1.87,0,3.75,0.06,5.6,0.31c15.26,2.01,22.88,9.29,25.16,24.62c1.01,6.77,1.01,13.66-0.29,20.45
		c-2.48,12.91-10.35,20.27-23.39,22.21c-6.71,1-13.46,0.79-20.18,0.64c-3.63-0.08-4.74,1.19-4.7,4.74
		c0.17,12.32-0.04,24.65,0.13,36.97c0.05,3.7-1.08,5.14-4.92,4.91c-4.98-0.29-10-0.29-14.97,0c-3.79,0.22-5-1.11-4.97-4.87
		C720.33,148.64,720.25,131.09,720.25,113.54z M745,90.39c-0.01,0-0.01,0-0.02,0c0,2.36-0.03,4.73,0.01,7.09
		c0.16,10.1-1.52,8.93,9.31,8.9c5.59-0.01,11.1-1.11,13.43-6.89c2.86-7.07,2.96-14.35-1.38-21.08c-1.18-1.83-3.28-2.59-5.37-3.18
		c-4.41-1.25-8.91-0.83-13.39-0.81c-2.21,0.01-2.61,1.49-2.6,3.29C745,81.93,745,86.16,745,90.39z"/>
	<path class="st0" d="M262.95,113.55c0.32-10.05,0.14-19.79,1.9-29.38c3.7-20.17,14.98-29.48,35.5-29.51c3.24,0,6.52-0.13,9.72,0.28
		c15.5,2,24.74,11.72,25.73,27.72c0.76,12.26,0.96,9.6-8.89,9.88c-3.49,0.1-7-0.12-10.49,0.05c-3,0.15-4.43-0.85-4.17-4.02
		c0.21-2.63-0.33-5.22-1.02-7.75c-1.49-5.48-4.67-8.24-9.58-8.48c-5.17-0.26-8.4,1.9-10.63,7.13c-1.78,4.17-2.65,8.59-2.96,13.06
		c-0.97,14.29-0.94,28.6-0.05,42.9c0.27,4.36,1.21,8.64,3.13,12.62c2.19,4.55,5.86,6.53,10.91,6.26c4.88-0.27,7.76-2.94,9.43-7.27
		c1.41-3.66,1.82-7.5,1.75-11.38c-0.04-2.69,1.14-3.82,3.83-3.78c5.62,0.08,11.24,0,16.86,0.04c1.48,0.01,2.96-0.01,3.47,2.01
		c3.26,12.98-6.25,30.92-19.02,35.59c-6.91,2.53-14.09,3.17-21.4,2.58c-1.99-0.16-3.98-0.37-5.94-0.74
		c-13.62-2.54-21.79-10.78-25.14-24.04C263.08,136.12,263.42,124.63,262.95,113.55z"/>
	<path class="st0" d="M468.33,113.57c0-17.56,0.07-35.11-0.06-52.67c-0.03-3.49,0.98-4.8,4.66-4.77c17.98,0.16,35.96,0.15,53.93,0
		c3.48-0.03,4.73,1.16,4.53,4.52c-0.18,3.1-0.16,6.23-0.01,9.33c0.16,3.2-1.13,4.45-4.37,4.41c-9.86-0.12-19.73,0.12-29.59-0.12
		c-3.85-0.09-5,1.2-4.84,4.93c0.27,6.34,0.17,12.7,0.03,19.05c-0.06,2.75,0.95,3.75,3.7,3.71c9.24-0.11,18.48,0.06,27.71-0.09
		c3.25-0.05,4.54,1.09,4.36,4.33c-0.18,3.23-0.16,6.48-0.01,9.71c0.15,3.05-1.06,4.19-4.15,4.15c-9.11-0.13-18.23,0.07-27.34-0.1
		c-3.27-0.06-4.38,1-4.3,4.28c0.19,8.09,0.21,16.19-0.01,24.28c-0.09,3.41,1.22,4.2,4.38,4.15c10.36-0.16,20.73,0.04,31.09-0.12
		c3.25-0.05,4.55,0.96,4.32,4.27c-0.23,3.22-0.22,6.48,0,9.7c0.23,3.38-0.97,4.56-4.45,4.52c-12.98-0.17-25.97-0.07-38.95-0.06
		c-4.99,0-9.99,0-14.98,0c-5.65-0.01-5.66-0.01-5.67-5.51C468.33,148.18,468.33,130.87,468.33,113.57z"/>
</g>
</svg>
